# xmcd
#
# Track frame offsets:
# 150
# 13150
# 22505
# 32830
# 46927
# 59685
# 70282
# 82002
# 93922
# 107202
# 120350
# 132827
# 143705
# 155377
#
# Disc length: 2199 seconds
#
#
# Revision: 0
# Processed by: cddbd v1.5.1PL2 Copyright (c) Steve Scherf et al.
# Submitted via: FreeRIP 2.942 
#
DISCID=b208950e
DTITLE=Léo Canhoto e Robertinho - Luar do Sertão
DYEAR=1900
DGENRE=Sertanejo
TTITLE0=Vou Tomá um Pingão
TTITLE1=A Gaivota
TTITLE2=Apartamento 37
TTITLE3=Suspiro e Saudade
TTITLE4=Eu e a Dinha
TTITLE5=Inverno Cruel
TTITLE6=Canção do Carreteiro
TTITLE7=Fofinha
TTITLE8=A Colina do Amor
TTITLE9=Crioulinha
TTITLE10=O Presidente e o Lavrador
TTITLE11=A Menina da Piscina
TTITLE12=A Garça
TTITLE13=Peito Estraçalhado
EXTD=
EXTT0=
EXTT1=
EXTT2=
EXTT3=
EXTT4=
EXTT5=
EXTT6=
EXTT7=
EXTT8=
EXTT9=
EXTT10=
EXTT11=
EXTT12=
EXTT13=
PLAYORDER=
